<svg xmlns="http://www.w3.org/2000/svg" width="6.25in" viewBox="0 0 1135.98 1167.16" class="template">
 <g id="Flourish" style="fill: hsl(HUE_COLORdeg, 19%, 90%)">
    <path class="TopRight" d="M761.08,621.89a81.3,81.3,0,0,0,56.38,14.22q1.41,2.22,2.88,4.4A160.74,160.74,0,0,0,877,691.17c21.77,11.74,47.18,19.34,72,19.21a112.22,112.22,0,0,0,18.19-1.71c2-.35,2-3.85-.2-3.74-25.79,1.19-51.56-2.55-75.23-13.08a162.18,162.18,0,0,1-60.64-46.6c-2.62-3.28-5.09-6.65-7.44-10.09,20.95-3.87,40.18-14.6,56.47-28.12,34.14-28.31,58.36-69.76,67.5-113.07,4.39-20.83,5.91-42.87-1.37-63.26a64.29,64.29,0,0,0-19-27.42c19.1-10.27,40.1-16.18,62.46-15,25.89,1.41,50.69,12.36,70.56,28.8a94.07,94.07,0,0,0-14.05,7.22c-23.56,14.66-46.78,40.63-41.82,70.48,4.66,28.09,36.2,43.73,61.55,31.24,12.82-6.32,21-18.11,24.41-31.76,3.54-14,4.27-30.23.09-44.19-3.66-12.23-11.4-22.42-20.54-31.11a65.07,65.07,0,0,1,32.69-1.44c27.41,6.05,56.15,25.79,61.7,54.87a47.24,47.24,0,0,1-.4,20.12c-.36,1.5,1.9,2.31,2.3.79,3.41-13.06,1.06-26.82-5.34-38.6-7.53-13.86-20.15-24.22-33.87-31.62-12.82-6.91-26.86-12.41-41.66-11.75a72.93,72.93,0,0,0-19.69,3.76c-.8-.69-1.6-1.37-2.41-2a134.9,134.9,0,0,0-37.13-21.86c-27.06-10.48-56.41-10.33-83.63-.55a158.76,158.76,0,0,0-20.15,8.91,49.78,49.78,0,0,0-16-7c-20.82-4.92-42.79,6.75-59.4,18.35a123.58,123.58,0,0,0-20.54,18,236.76,236.76,0,0,1,57.22-61.28,57.71,57.71,0,0,0,6.26-4.55q4-2.87,8.22-5.56c19.09-12.34,39.38-22.6,59.38-33.37a228.66,228.66,0,0,1,44.3-16.78,212.55,212.55,0,0,1,29.92-5.41c10.52-1.12,20.93-1.23,31,2.42,10.8,3.93,19.15,11.25,26.75,19.66,0,0,0,0,0,0-8.82-17.81-30.42-26.59-49.39-26.26a193.13,193.13,0,0,0-50.52,7.94c23.71-15.06,45.08-33,63.1-54.79A249.07,249.07,0,0,0,1079,212c6-10.94,11.31-22.72,12.59-35.28,1.12-11-1.15-22.44-8.85-30.69-6.39-6.85-15.68-11.69-25.22-11a21.92,21.92,0,0,0-11.93,4.72c-1.13.88.29,2.43,1.42,1.65,9.14-6.24,20.84-3,28.88,3.53,9.41,7.64,12.7,19.14,11.54,30.93-1.29,13.26-7.4,25.63-14,37a254.15,254.15,0,0,1-27.55,38c-21.08,24.33-46.7,43.38-74.61,59.18C951.91,321,932,330.79,912.76,341.82a100.12,100.12,0,0,0,11.09-14c4.43-7,8.16-15,8.64-23.32.4-7.06-1-16.12-6.28-21.25a.61.61,0,0,0-1,.65c1.54,3.38,3.16,6.6,3.82,10.3a32.77,32.77,0,0,1-.28,11.6c-1.47,8.34-5.88,15.69-11.15,22.19a194,194,0,0,1-18,19.27q-5.07,4.77-10.44,9.19c-46.37,31.38-82.66,79.25-95.39,134.23-11,47.37-3.5,100.48,21.79,142.37-13.19,1.47-26.77.28-39-4.39-20.29-7.72-35.79-25.94-43-46.1-6.89-19.17-6.61-40.51-1.21-60,1.31-4.71,2.7-9.41,4.29-14,.47-1.38-1.53-2-2.11-.72C717,546,725.93,596.68,761.08,621.89ZM1086.86,456a82.49,82.49,0,0,1-2.59,41.51c-4.34,12.72-13.93,22.89-27,26.68a37.63,37.63,0,0,1-36.36-8.8c-9.73-9.29-13-22.4-11.14-35.48,2.11-14.41,10.66-27,20.92-36.95,9.69-9.42,21.33-17.39,34-22.15C1075.12,430.31,1084,441.9,1086.86,456ZM799,493.66a201.41,201.41,0,0,1,10.84-33.12,96.54,96.54,0,0,1,7-10.89,154.69,154.69,0,0,1,21.08-23.06,130.05,130.05,0,0,1,25-17.55c9.07-4.85,19.12-9.38,29.45-10.47a39,39,0,0,1,23,5,209.07,209.07,0,0,0-44.71,36,256.42,256.42,0,0,0-52.33,81.59A206.21,206.21,0,0,0,806,563.7c-1.86,11.18-2.79,23.14-1.27,34.56a170,170,0,0,1-7-24.5A187.2,187.2,0,0,1,799,493.66Zm17.52,129.91a2.83,2.83,0,0,0-.13-.63c-7.88-24.45-4.65-52.2,2.3-76.5,7.93-27.73,21.25-53.72,37.88-77.22s38.58-46.68,64.21-62.15a54.55,54.55,0,0,1,14.76,16.58c10,17.45,10.25,38.37,8,57.81-4.93,41.74-23.21,81.38-52.79,111.35-15.66,15.87-34.5,29.4-55.93,36.15a101.09,101.09,0,0,1-13,3.18Q819,627.93,816.47,623.57Z" transform="translate(-37.51 -20.9)"/>
    <path class="TopRight" d="M1145.54,198.4c-24.67-26.13-44.41-14.94-50.46-10.33a65.92,65.92,0,0,1,43.35,8.32s-26.81-8.86-43.75-4.87C1114.4,213.85,1145.54,198.4,1145.54,198.4Z" transform="translate(-37.51 -20.9)"/>
    <path class="TopRight" d="M1132.08,107.71c11.67,53.73-19.52,69-30.57,72.66,8.24-8.58,24.34-29.24,27-61.94,0,0-12,41.51-31.66,59.46C1085.65,133.69,1132.08,107.71,1132.08,107.71Z" transform="translate(-37.51 -20.9)"/>
    <path class="TopRight" d="M1049.89,161.84c31.43,26.48,19.93,49.75,15.06,57,1-8.84,1.06-28.41-12.3-49,0,0,11.84,30,8.38,49.64C1034.26,198.4,1049.89,161.84,1049.89,161.84Z" transform="translate(-37.51 -20.9)"/>

    <path class="BottomRight" d="M1140.33,926.06c-5.86-24.07-21.12-45.09-41.52-58.92.31-2.16.6-4.32.85-6.48,3.59-31.47-1-63.89-12.35-93.41-11-28.62-28.74-56.3-52.22-76.27a139.72,139.72,0,0,0-18.49-13.09c-2.21-1.33-5,2-2.84,3.69,25.21,19.71,46.43,44,60.17,73.07a200.94,200.94,0,0,1,19.37,92.81c-.18,5.2-.58,10.36-1.15,15.5-22.83-13.28-49.58-18.73-75.82-19.19-55-1-111.23,18.45-154.83,51.8-21,16-40.19,35.52-49.82,60.58a79.72,79.72,0,0,0-4.31,41.11c-26.26-5.77-50.79-17.19-70.83-36.4-23.2-22.24-37.67-52.57-43.07-84.08a118.28,118.28,0,0,0,19,4.56c34,5.25,76.82-.41,96.27-32.48,18.32-30.19,1.29-70.38-32.64-79.11-17.15-4.41-34.32.1-48.61,10.15-14.65,10.31-28.44,25-35.78,41.47-6.44,14.45-7.4,30.3-5.82,45.85A80.63,80.63,0,0,1,654,842.17c-20.88-27.84-32-69.63-13.68-101.45A58.59,58.59,0,0,1,657,722.12c1.55-1.11.09-3.7-1.52-2.6-13.76,9.52-22.66,24.37-26.16,40.61-4.12,19.12-.63,39.06,6.29,57.09,6.47,16.87,15.23,33.38,29.68,44.71a90.12,90.12,0,0,0,21.56,12.38c.19,1.29.39,2.58.61,3.86a166.93,166.93,0,0,0,17.26,50.56c17,31.72,44.69,55.28,78.19,68.08a193.9,193.9,0,0,0,26.15,7.9,61.32,61.32,0,0,0,9.35,19.55c15.6,21.45,45.69,28.22,70.68,30.74a154,154,0,0,0,33.88-.36A293.7,293.7,0,0,1,819.62,1066a67.6,67.6,0,0,0-9.56-.77c-4.08-.4-8.16-.86-12.22-1.42-27.92-3.82-55.29-10.57-82.8-16.6-19-4.92-37.37-11.2-55.21-20a260.58,260.58,0,0,1-32.5-19.09c-10.8-7.43-20.68-15.74-27.19-27.32-7-12.42-8.92-26-9.27-40.09a0,0,0,0,0-.06,0c-6.1,23.88,7.11,49.59,25.22,64.61a239.61,239.61,0,0,0,53.91,33.34c-34.45-5-69.08-5.36-103.59.54a308.8,308.8,0,0,0-56.06,15.45c-14.5,5.42-29,12.23-40.34,23-9.93,9.42-17.06,22-16.48,36,.47,11.59,5.3,23.65,14.86,30.67a27.26,27.26,0,0,0,15,5.21c1.77.09,1.69-2.51,0-2.7-13.64-1.52-22-14-24.31-26.65-2.67-14.79,3.53-28.26,14.14-38.41,11.93-11.43,27.67-18.12,43.07-23.44a314.67,314.67,0,0,1,56.59-13.46c39.48-5.86,79-3.07,118,4.63,27,5.31,53.62,12.18,80.61,17.35a122.74,122.74,0,0,0-21.76,4.23c-9.78,3-19.77,7.48-27,14.94-6.09,6.32-12.07,16-11.27,25.06a.75.75,0,0,0,1.47.2c1.29-4.41,2.37-8.75,4.73-12.76a41,41,0,0,1,9.64-10.69c8.12-6.65,18.21-10,28.41-11.86a244.55,244.55,0,0,1,32.5-3.58q8.61-.37,17.24-.2c69,8,141.75-7.73,198.15-49.14,48.59-35.68,84.46-91.66,94.52-151.48,13.6,9.28,25.4,21.37,33.18,35.68,12.85,23.65,12.7,53.3,3.22,78.11-9,23.59-26.52,43.44-47.35,57.4-5,3.38-10.15,6.67-15.38,9.75-1.56.92-.19,3.13,1.4,2.39C1120.45,1033,1153,978.16,1140.33,926.06ZM700,818.82a102.22,102.22,0,0,1,36-36.94c14.36-8.46,31.59-10.26,46.95-3.26A46.65,46.65,0,0,1,810,816.28c1.64,16.58-5.83,31.59-18.19,42.35-13.63,11.85-31.83,16.76-49.53,17.84-16.72,1-34.1-.87-49.83-6.61C690.25,852.47,691.29,834.4,700,818.82ZM1001.12,1016a250.24,250.24,0,0,1-36.94,22.38,121.53,121.53,0,0,1-15.4,4.58,192.16,192.16,0,0,1-38.45,4.64,161.7,161.7,0,0,1-37.67-3.67c-12.45-2.77-25.55-6.63-36.15-14A48.38,48.38,0,0,1,819,1006.74c23.43,4.2,47.63,4.6,71.14,2.25a318,318,0,0,0,115.13-34.44,254.63,254.63,0,0,0,45.89-30c10.79-9,21.33-19.5,29.13-31.46A212.68,212.68,0,0,1,1067,941.73,232.11,232.11,0,0,1,1001.12,1016Zm88.49-136.32a4.33,4.33,0,0,0-.39.7c-12.34,29.36-37.8,52.85-64,70.07-29.88,19.67-63.39,33.35-98,42s-74,12.73-110.59,6.57a67.52,67.52,0,0,1-.47-27.51c4.71-24.48,21.36-44.37,39.22-60.79C893.74,875.49,943,853,995,848.7c27.55-2.26,56.2.24,81.81,11.2a125,125,0,0,1,14.81,7.54Q1090.8,873.62,1089.61,879.72Z" transform="translate(-37.51 -20.9)"/>
    <path class="BottomRight" d="M436.67,1013.64c2.09,44.5,29.69,49.93,39.11,50.49-8.25-5-25.16-17.8-34-42.85,0,0,18,30,37.2,39.93C478.44,1024.27,436.67,1013.64,436.67,1013.64Z" transform="translate(-37.51 -20.9)"/>
    <path class="BottomRight" d="M974.39,1081.05c63.7,24.27,88.19-11.13,94.73-24-12,8.51-40.36,24.41-80.93,21.56,0,0,53.1-7,78.76-27.78C1014.83,1029,974.39,1081.05,974.39,1081.05Z" transform="translate(-37.51 -20.9)"/>
    <path class="BottomRight" d="M989.61,903.86c63.7,24.27,88.2-11.14,94.73-24-12,8.52-40.35,24.42-80.92,21.57,0,0,53.1-7,78.76-27.78C1030.06,851.76,989.61,903.86,989.61,903.86Z" transform="translate(-37.51 -20.9)"/>
    <path class="BottomRight" d="M936.36,753.07c-40.28,55-12.63,88-2,97.7-5-13.87-12.85-45.38.65-83.74,0,0-7.33,53.05,5.92,83.3C975.88,805.87,936.36,753.07,936.36,753.07Z" transform="translate(-37.51 -20.9)"/>
    <path class="BottomRight" d="M758.87,737.45C712.72,687.29,675,708,663.39,716.62c14.58-2.24,47-3.82,82,16.85,0,0-50.64-17.46-82.88-10.32C699.41,766,758.87,737.45,758.87,737.45Z" transform="translate(-37.51 -20.9)"/>
    <path class="BottomRight" d="M376.06,1109.79c32.44-60,74.1-49.11,87.45-43.62-14.68,1.41-46.51,7.83-75.39,36.46,0,0,44.8-29.35,77.81-30.34C440.71,1122.88,376.06,1109.79,376.06,1109.79Z" transform="translate(-37.51 -20.9)"/>
    <path class="BottomRight" d="M897.65,943.88c60.61-31.18,88.88,1.29,96.8,13.36-12.91-7.13-42.81-19.8-82.81-12.47,0,0,53.55,1.07,81.35,18.89C943.61,991.17,897.65,943.88,897.65,943.88Z" transform="translate(-37.51 -20.9)"/>
    <path class="BottomRight" d="M727.24,1001.45c68.06-3.7,80.61,37.48,82.91,51.73-8.88-11.78-31-35.55-70.51-45.2,0,0,48.45,22.84,66.55,50.46C749.88,1063.4,727.24,1001.45,727.24,1001.45Z" transform="translate(-37.51 -20.9)"/>
    <path class="BottomRight" d="M809.4,1160c-2.92-68.1,38.41-80.17,52.68-82.3-11.88,8.73-35.9,30.58-46,70,0,0,23.4-48.18,51.23-66C871.6,1138.09,809.4,1160,809.4,1160Z" transform="translate(-37.51 -20.9)"/>
    <path class="BottomRight" d="M497.08,1125.3c-8.16-50.29,21.45-62.88,31.86-65.72-8.05,7.53-24,25.85-28,56,0,0,13.12-37.81,32.21-53.46C541.31,1103.55,497.08,1125.3,497.08,1125.3Z" transform="translate(-37.51 -20.9)"/>
    <path class="BottomRight" d="M640.11,909C663.7,954.13,695,946.47,705,942.51c-11-1.21-34.67-6.35-56-28,0,0,33.16,22.41,57.82,23.5C688.56,899.89,640.11,909,640.11,909Z" transform="translate(-37.51 -20.9)"/>
    <path class="BottomRight" d="M1074.66,1005.87c17.91-47.7,49.86-43.91,60.3-41.21-10.73,2.54-33.63,10.54-52.1,34.68,0,0,30.18-26.3,54.51-30.39C1123.85,1009,1074.66,1005.87,1074.66,1005.87Z" transform="translate(-37.51 -20.9)"/>
    <path class="BottomRight" d="M722.51,1188.06c-36-36.08-19.26-63.59-12.47-72-2.14,10.81-4.37,35,9.93,61.79,0,0-11.4-38.37-5-62.21C745.74,1144.59,722.51,1188.06,722.51,1188.06Z" transform="translate(-37.51 -20.9)"/>
    <path class="BottomRight" d="M743.92,1126.06c-9-35.44,11.41-46.29,18.67-49a67.13,67.13,0,0,0-16.51,41.77s7-27.85,19.69-40.23C774.19,1107.76,743.92,1126.06,743.92,1126.06Z" transform="translate(-37.51 -20.9)"/>
    <path class="BottomRight" d="M617.18,862.46c-44.18,30.06-32.42,61.69-27.07,71.66-.08-11.56,2.41-36.89,22.44-61.69,0,0-19.33,37.27-17.48,63.09C632.52,911.83,617.18,862.46,617.18,862.46Z" transform="translate(-37.51 -20.9)"/>
    <path class="BottomRight" d="M672.59,775.08c-35.14,23.9-25.78,49.06-21.53,57-.06-9.2,1.92-29.34,17.85-49.06,0,0-15.37,29.63-13.9,50.17C684.79,814.34,672.59,775.08,672.59,775.08Z" transform="translate(-37.51 -20.9)"/>
    <path class="BottomRight" d="M1032.16,784.15c-35.74,20.09-28.81,45-25.38,53,.71-8.85,4.26-28,21.19-45.7,0,0-17.21,27.23-17.48,47.09C1040.67,822.89,1032.16,784.15,1032.16,784.15Z" transform="translate(-37.51 -20.9)"/>
    <path class="BottomRight" d="M641.36,951.66c-27.18,30.69-12.46,52-6.6,58.4-2.24-8.58-5.18-27.89,5-50.12,0,0-7.34,31.37-1.08,50.22C662.09,985.48,641.36,951.66,641.36,951.66Z" transform="translate(-37.51 -20.9)"/>
    <path class="BottomRight" d="M762.47,911.92c20.24,35.66,45.16,28.63,53.12,25.16-8.84-.66-28.06-4.13-45.78-21,0,0,27.3,17.1,47.16,17.29C801.18,903.26,762.47,911.92,762.47,911.92Z" transform="translate(-37.51 -20.9)"/>
    <path class="BottomRight" d="M830.77,971.12c20.24,35.66,45.16,28.63,53.12,25.16-8.85-.66-28.07-4.14-45.79-21,0,0,27.3,17.1,47.17,17.29C869.48,962.46,830.77,971.12,830.77,971.12Z" transform="translate(-37.51 -20.9)"/>
    <path class="BottomRight" d="M752.83,948.1c33.69,23.37,53.11,6.24,58.78-.33-8.26,3.23-27.08,8.42-50.36.9,0,0,32,3.59,50-4.85C784,923.52,752.83,948.1,752.83,948.1Z" transform="translate(-37.51 -20.9)"/>
    <path class="BottomRight" d="M964.16,1027.52c40.12-8.44,41-34.32,40.12-42.95-3.32,8.22-12.48,25.47-33.93,37.23,0,0,24.59-20.81,30.81-39.68C967.68,988,964.16,1027.52,964.16,1027.52Z" transform="translate(-37.51 -20.9)"/>
    <path class="BottomRight" d="M595.87,735c-9,40,14.21,51.55,22.43,54.33-6.1-6.44-18-21.92-19.79-46.32,0,0,8.73,31,23.31,44.5C630.36,754.6,595.87,735,595.87,735Z" transform="translate(-37.51 -20.9)"/>
    <path class="BottomRight" d="M541.67,946.44c12.25,39.12,38.1,37.51,46.61,35.81-8.51-2.52-26.56-10-40.32-30.2,0,0,23.08,22.48,42.45,26.86C581.34,946.15,541.67,946.44,541.67,946.44Z" transform="translate(-37.51 -20.9)"/>
    <path class="BottomRight" d="M1119.06,1088.53c39.85-35.6,24-65.41,17.43-74.59,1.58,11.45,2.45,36.88-14.15,64.1,0,0,14.26-39.48,9-64.84C1097.37,1041.61,1119.06,1088.53,1119.06,1088.53Z" transform="translate(-37.51 -20.9)"/>
    <path class="BottomRight" d="M1173.5,826.94c-53-6.58-65.07,24.95-67.64,36,7.58-8.74,26.16-26.13,57.58-31.54,0,0-39.12,15.25-54.77,35.87C1152.44,874.15,1173.5,826.94,1173.5,826.94Z" transform="translate(-37.51 -20.9)"/>
    <path class="BottomRight" d="M830,818.58c6.36,53,39.85,57.16,51.17,57-10.3-5.26-31.65-19.12-44.45-48.32,0,0,24.2,34.31,48,44.55C880.85,827.67,830,818.58,830,818.58Z" transform="translate(-37.51 -20.9)"/>
    <path class="BottomRight" d="M674.13,1096.91c20.27-26.63,39.66-18.21,45.71-14.54a61.42,61.42,0,0,0-39.32,12s24-10.85,40-8.83C704.49,1108.15,674.13,1096.91,674.13,1096.91Z" transform="translate(-37.51 -20.9)"/>
    <path class="BottomRight" d="M1091.12,945.75c30-14.74,43.62,1.45,47.4,7.45a61.43,61.43,0,0,0-40.54-6.88s26.28,1,39.76,10C1113.25,969.39,1091.12,945.75,1091.12,945.75Z" transform="translate(-37.51 -20.9)"/>
    <path class="BottomRight" d="M883.87,1129.62c15-29.89-1-43.63-7-47.47a61.39,61.39,0,0,1,6.46,40.6s-.74-26.28-9.6-39.86C860.46,1107.24,883.87,1129.62,883.87,1129.62Z" transform="translate(-37.51 -20.9)"/>
    
	<path class="TopLeft" d="M886.12,132.17c-2.29,8.65-6.16,17.38-9.94,25.48a160.34,160.34,0,0,1-13.19,23,186.1,186.1,0,0,1-36,38.53,237.8,237.8,0,0,1-26.27,18.89,85.13,85.13,0,0,0,9.38-8.63c11.78-12.67,20.81-29.52,21.46-47a.46.46,0,0,0-.9-.12c-4.72,16.68-11.39,32.41-23.54,45.1a89.78,89.78,0,0,1-21.26,16.14c-4.19,2.34-8.52,4.42-12.92,6.33s-8.79,3.26-12.72,5.82A275.93,275.93,0,0,1,730.05,264c-45.07,9.56-92.43,6.52-137.38-2.12-14.87-2.85-29.62-6.33-44.24-10.27l6.38-2.17c31.48-10.8,63.27-21.11,94.34-33.05,13.43-5.16,25-12.42,34.41-23.42a94.51,94.51,0,0,0,19.51-35.75c6.46-23.34.49-50.22-20.62-64.12A39.66,39.66,0,0,0,666.89,87c-.57-.1-.83.74-.25.88,13.32,3.32,23.88,12.75,30.09,24.82,6.84,13.3,7.19,28.68,3.06,42.87-4.29,14.76-13,28.55-24,39.28-12,11.77-27.37,16.94-43,22-31.81,10.38-63.64,20.73-95.26,31.66-4.06-1.16-8.1-2.34-12.14-3.57-16.79-5.11-33.33-11-50-16.42q2.26-8.15,3.73-16.5a2.48,2.48,0,0,0,.82-1.36,61.46,61.46,0,0,1,30.22-38.91,56.92,56.92,0,0,1,27.49-6.68,75.18,75.18,0,0,1,14.41,1.83c4.63,1,8.9,3.69,13.45,4.42a.55.55,0,0,0,.53-.91c-3-3.12-8.61-4.55-12.63-5.85a54.15,54.15,0,0,0-15.08-2.37,65.69,65.69,0,0,0-29.06,5.64,62.71,62.71,0,0,0-28,25.44,165.42,165.42,0,0,0-.28-24.18c-1.94-22.46-8.38-44.63-20.3-63.86-10.94-17.64-28.23-33.74-47.94-40.84A71,71,0,0,0,398,60.9c-.39-.06-.48.6-.1.67,47,8.45,72.72,58.43,77.76,102a168.08,168.08,0,0,1-5,63.48c-3.94-1.26-7.88-2.5-11.84-3.68-38.29-11.4-77.42-16.24-117.08-12A107.1,107.1,0,0,0,310,174.45c-39.35-28.84-95.1-25.45-132.78,4.65-37.51,30-55.67,87.48-36.52,132.58a69.79,69.79,0,0,0,7.3,13.07,262.76,262.76,0,0,0-44.85,116.06c-9.52,75.4,17.85,155.55,73.19,208a210.81,210.81,0,0,0,21,16.93c.84.61,1.9-.76,1.11-1.44A257,257,0,0,1,124.5,558.47a121.85,121.85,0,0,1-4-45.33c2.53-24.53,13.86-46.7,31.13-64.12,16.15-16.28,36-28.06,56.8-37.49l.29-.13q4.78-2.17,9.64-4.19c5.14-2.13,10.43-4.17,15.81-6.15a139.16,139.16,0,0,1,22.19-4.75c20.16-2.6,39.84-.1,59.59,4.15,17.45,3.76,35.75,8.15,45,25,8.54,15.61,4.52,32.81-8.45,44.44a54.54,54.54,0,0,1-26.17,12.6c-12,2.36-23.61.67-35.65,1a1.33,1.33,0,0,0-.35,2.59c10.65,2.5,22.77,2.33,33.57.89,9.47-1.27,18.93-4.11,27-9.31,14.68-9.44,23.12-26,19.48-43.42-4-19-19.23-31-37.08-36.44-19.65-5.93-41.06-10-61.77-9.67,10.79-3.71,21.43-7.5,31.49-11.64,25.48-10.5,51-21.31,75.47-34.06,22.63-11.8,40.72-26.61,58.37-45.21a160.41,160.41,0,0,0,28.92-42.67c.8.47,1.6.92,2.39,1.4a134.51,134.51,0,0,1,19,13.92A120.66,120.66,0,0,0,457,293.57C439.53,313,430.25,340,439.17,365.48c4.26,12.15,11.81,22.92,23.21,29.29a42,42,0,0,0,38.78,1.43c27-12.44,34.3-44.78,28.84-71.65-4.2-20.67-15.54-39.33-30.33-54.31,11.57-5.68,23.81-10.17,36.05-14.37q13.51,3.79,27.15,7.1c17.22,5.18,30.87,10.74,30.87,10.74a99.94,99.94,0,0,1,35,21.93c9.52,9.34,16.92,21,19.94,34.08,3.08,13.36.41,28.39-6.24,40.33-.08.14.11.31.22.18,3.28-4,6-7.68,7.67-12.61a58.88,58.88,0,0,0,3.05-16.47A69.57,69.57,0,0,0,647.24,309c-7.23-16.18-21.19-28.29-36.79-36.61a393.11,393.11,0,0,0,61.83,4.57c7,.75,14.24.35,20.82-.07,11.95-.75,23.79-2.53,35.7-3.75,20.82-2.14,48.58-4.39,64.2,12.57a1.13,1.13,0,0,0,1.87-1.09c-1.61-4.52-6.49-7-10.55-9a75.06,75.06,0,0,0-14.42-5.15,104,104,0,0,0-25-3.22,210.16,210.16,0,0,0,24.32-8.43c15.85-6.65,30.91-15.64,45.58-24.56s28-21.22,39.27-34.16A169.63,169.63,0,0,0,881.87,157c3.43-7.82,5.45-15.66,7.62-23.87C890.07,130.92,886.69,130,886.12,132.17Zm-418,103.05q-1.56,4.71-3.4,9.33c-18.44-9.8-38.66-16.07-59.17-20.49q-13.12-2.84-26.45-4.84a297,297,0,0,1,68.28,10.07C454.34,231.14,461.24,233.14,468.13,235.22ZM148,312.59c-10.32-21-10.41-46.71-4.58-69a113.91,113.91,0,0,1,34-56.28c33.11-29.43,85.14-35.73,122.84-11.46a101.9,101.9,0,0,1,33.94,36.34,277.79,277.79,0,0,0-111.41,40.29,262,262,0,0,0-70.95,66.83A62.39,62.39,0,0,1,148,312.59Zm-1.44,127.83c-17.1,16.28-27.47,38.29-31.8,61.68A116.86,116.86,0,0,0,113,516.87a236.55,236.55,0,0,1-3.67-55.21c2.41-46.21,18.45-91.41,44.56-129.66a66.38,66.38,0,0,0,42.52,21.15,67.21,67.21,0,0,0,36.39-7.39c9.89-5.09,20-13.18,23.49-24.18a19.48,19.48,0,0,0-.88-14.39c-.91-2-4.42-.54-3.56,1.5,4.82,11.52-4.65,22.83-13.77,28.82a62.22,62.22,0,0,1-80.51-10.75A253.32,253.32,0,0,1,216.46,268a267.49,267.49,0,0,1,102.63-43.69,163.15,163.15,0,0,1,20.22-1.12.54.54,0,0,1,.05.11c9.25,23.81,7.06,49.67.31,73.85-3.43,12.27-7.51,24.56-13.86,35.66a85.61,85.61,0,0,1-22.53,25.37c-17.47,13.4-38.14,20.91-58.63,28.28-5,1.79-9.79,4-14.62,6.1a2,2,0,0,0-1.14,1.15c-6,2.18-11.9,4.45-17.64,6.89C187.84,410.47,165.07,422.77,146.53,440.42ZM432.28,295.08c-17.81,18.18-39.72,32.11-62.14,43.88C348,350.59,324.72,359,301.45,368c20-14.33,33.23-34.47,41.44-57.66,9.16-25.89,14-55,5.86-81.78-.54-1.78-1.14-3.54-1.78-5.29a305.41,305.41,0,0,1,36.66,4.32c26.88,4.49,53.82,11.41,77.87,24.48A150.85,150.85,0,0,1,432.28,295.08Zm85.53,17.69c9.26,24.67,8.4,58.63-16.59,73.85a35.67,35.67,0,0,1-37.87-.11c-11-6.8-17.88-18.09-20.35-30.63-5.3-26.85,9.46-51.8,29.55-68.46A127.54,127.54,0,0,1,492,274.28C503.17,285.18,512.34,298.18,517.81,312.77Zm-22.87-47.09q-3.65-3.35-7.52-6.4A147.15,147.15,0,0,0,469.1,247q2.08-5.07,3.82-10.28c13.65,4.19,27.24,8.63,40.9,12.8,3.8,1.16,7.62,2.29,11.43,3.41A275.05,275.05,0,0,0,494.94,265.68Z" transform="translate(-37.51 -20.9)"/>
    <path class="TopLeft" d="M374.14,128.67c-44.35,26.8-34.61,58.05-29.95,68,.53-11.21,4.25-35.61,24.95-58.58,0,0-20.66,35.09-20.21,60.19C386.42,177.28,374.14,128.67,374.14,128.67Z" transform="translate(-37.51 -20.9)"/>
    <path class="TopLeft" d="M385.79,83.51c26.07,33.69,50.67,22.78,58.34,18-9.19.62-29.47-.12-50.18-14.84,0,0,30.6,13.55,51.05,10.82C424.33,68.89,385.79,83.51,385.79,83.51Z" transform="translate(-37.51 -20.9)"/>
    <path class="TopLeft" d="M705.28,202.56c-2.3,42.53,23.45,50.36,32.35,51.79-7.36-5.54-22.22-19.36-28.27-44,0,0,14.29,30.26,31.56,41.56C744,216.69,705.28,202.56,705.28,202.56Z" transform="translate(-37.51 -20.9)"/>
    <path class="TopLeft" d="M422.24,285.41c-19.63-48-52-43.16-62.54-40.1,11,2.26,34.52,9.71,54,33.7,0,0-31.48-25.83-56.35-29.27C372.32,290,422.24,285.41,422.24,285.41Z" transform="translate(-37.51 -20.9)"/>
    <path class="TopLeft" d="M930.55,197.11c-46.5-22.87-67.55,2.19-73.4,11.47C866.87,203,889.42,193,919.93,198c0,0-40.69,1.54-61.58,15.46C896.25,233.69,930.55,197.11,930.55,197.11Z" transform="translate(-37.51 -20.9)"/>
    <path class="TopLeft" d="M571.56,415.66c-7.33-36.11-30.59-37.07-38.36-36.33a67.65,67.65,0,0,1,33.25,30.73S547.9,387.82,531,382.12C536.07,412.25,571.56,415.66,571.56,415.66Z" transform="translate(-37.51 -20.9)"/>
    <path class="TopLeft" d="M236.67,57.23c-29.63,58.06,1.5,85,13.07,92.54-6.86-12.33-19.06-40.88-12.17-79.16,0,0,1.18,51.21,18.3,77.74C282,101.05,236.67,57.23,236.67,57.23Z" transform="translate(-37.51 -20.9)"/>
    <path class="TopLeft" d="M202.78,438.35c27.79,59,68.15,50.83,81.19,46.29-14-2.12-44-9.94-70.06-38.81,0,0,41.22,30.4,72.69,33.09C265.2,429.29,202.78,438.35,202.78,438.35Z" transform="translate(-37.51 -20.9)"/>
    <path class="TopLeft" d="M583,348.94c9.29-64.52-28.88-80-42.26-83.35,10.47,9.45,31.24,32.53,37.09,71,0,0-17.66-48.08-42.43-67.66C525.87,322.13,583,348.94,583,348.94Z" transform="translate(-37.51 -20.9)"/>
    <path class="TopLeft" d="M889.75,31.37c41.13,50.57,16.32,83.43,6.59,93.22,4.13-13.49,10.08-44-4.67-79.95,0,0,9.57,50.32-1.62,79.85C854.56,83.72,889.75,31.37,889.75,31.37Z" transform="translate(-37.51 -20.9)"/>
    <path class="TopLeft" d="M779.94,167.35c15.77,63.25-20.64,82.46-33.6,87.2,9.46-10.47,27.78-35.53,29.71-74.37,0,0-12.7,49.61-35.37,71.6C725.86,199.8,779.94,167.35,779.94,167.35Z" transform="translate(-37.51 -20.9)"/>
    <path class="TopLeft" d="M43.8,328.44c54.16,36.28,84.58,8.54,93.43-2.05-13,5.35-42.84,14.1-80,2.74,0,0,51,4.87,79.36-9C92.67,288.57,43.8,328.44,43.8,328.44Z" transform="translate(-37.51 -20.9)"/>
    <path class="TopLeft" d="M758.36,317.68c-49.8,8.14-62.3-21.18-65.12-31.48,7.46,8,25.63,23.7,55.47,27.66,0,0-37.46-13-53-31.85C736.78,273.9,758.36,317.68,758.36,317.68Z" transform="translate(-37.51 -20.9)"/>
    <path class="TopLeft" d="M492.82,67.3c24.64,44.12,1.3,65.89-7.44,72.07,5-9.75,13.58-32.22,7.13-61.68,0,0,.57,39.7-11.92,60.76C459,102.56,492.82,67.3,492.82,67.3Z" transform="translate(-37.51 -20.9)"/>
    <path class="TopLeft" d="M818.33,107.21c37.86,33.47,23,61.74,16.84,70.46,1.44-10.84,2.14-34.9-13.69-60.56,0,0,13.68,37.27,8.86,61.28C798,151.69,818.33,107.21,818.33,107.21Z" transform="translate(-37.51 -20.9)"/>
    <path class="TopLeft" d="M308.11,254.4c37.12,34.29,21.69,62.23,15.3,70.81,1.68-10.8,2.9-34.84-12.37-60.84,0,0,12.87,37.56,7.53,61.46C286.86,298.43,308.11,254.4,308.11,254.4Z" transform="translate(-37.51 -20.9)"/>
    <path class="TopLeft" d="M417,178.88c45.16,1.38,51.13,29.29,51.85,38.83-5.2-8.28-18.47-25.23-44-33.82,0,0,30.71,17.81,41.11,37.07C428.44,221.06,417,178.88,417,178.88Z" transform="translate(-37.51 -20.9)"/>
    <path class="TopLeft" d="M366.54,378.71c29-39.67,57.73-27.86,66.73-22.63-10.63-.43-34,1.05-57.42,18.69,0,0,34.87-16.6,58.55-14.08C411.44,394.37,366.54,378.71,366.54,378.71Z" transform="translate(-37.51 -20.9)"/>
    <path class="TopLeft" d="M594.24,104.52C623.26,64.85,652,76.67,661,81.89c-10.62-.43-34,1-57.42,18.69,0,0,34.87-16.59,58.55-14.08C639.15,120.18,594.24,104.52,594.24,104.52Z" transform="translate(-37.51 -20.9)"/>
    <path class="TopLeft" d="M663.74,110.51c38.68,30.32,25.92,58.62,20.4,67.44.78-10.61.08-34-16.77-58,0,0,15.43,35.4,12.13,59C646.6,154.87,663.74,110.51,663.74,110.51Z" transform="translate(-37.51 -20.9)"/>
    <path class="TopLeft" d="M422.25,431.09c13.8-33.67,36.53-30.29,43.93-28.14a66.81,66.81,0,0,0-37.94,23.65s22.11-18.13,39.57-20.54C457.31,434.35,422.25,431.09,422.25,431.09Z" transform="translate(-37.51 -20.9)"/>
    <path class="TopLeft" d="M456.14,491.18c-27.17-53.34,1.44-78.05,12.06-85-6.3,11.31-17.52,37.52-11.23,72.67,0,0,1.12-47,16.86-71.36C497.83,451,456.14,491.18,456.14,491.18Z" transform="translate(-37.51 -20.9)"/>
    <path class="TopLeft" d="M134.38,112.92c1.83,51.06,33.43,57.65,44.22,58.4-9.39-5.83-28.63-20.74-38.51-49.58,0,0,20.33,34.62,42.17,46.27C182.15,125.64,134.38,112.92,134.38,112.92Z" transform="translate(-37.51 -20.9)"/>
    <path class="TopLeft" d="M684.52,255.4c-30.62-40.91-60.33-28.3-69.62-22.76,11-.57,35.34.71,59.9,18.77,0,0-36.44-16.85-61-14C638,272.19,684.52,255.4,684.52,255.4Z" transform="translate(-37.51 -20.9)"/>
    <path class="TopLeft" d="M325.9,552.86c43.84-26.25,34.36-57.1,29.82-66.92-.58,11-4.35,35.09-24.85,57.65,0,0,20.52-34.51,20.18-59.26C314,504.87,325.9,552.86,325.9,552.86Z" transform="translate(-37.51 -20.9)"/>
    <path class="TopLeft" d="M840.76,349.51c1.54-51.07-29.56-59.72-40.28-61.19,9,6.44,27.21,22.58,35.16,52,0,0-18-35.88-39-48.95C793.92,333.67,840.76,349.51,840.76,349.51Z" transform="translate(-37.51 -20.9)"/>
    <path class="TopLeft" d="M86,209.84c22.85,29.68,44.5,20.14,51.26,16a68.72,68.72,0,0,1-44.1-13.16s26.88,12,44.87,9.63C119.91,197.07,86,209.84,86,209.84Z" transform="translate(-37.51 -20.9)"/>
    <path class="TopLeft" d="M74.9,356.84c37.53,11,50.74-10.56,54.17-18.27a75,75,0,0,1-46.24,16.22s30.54-6.52,44.82-19.69C96.89,325,74.9,356.84,74.9,356.84Z" transform="translate(-37.51 -20.9)"/>
    <path class="TopLeft" d="M392.34,179.89c-31.28-6.73-40.13,11.44-42.25,17.87a58.82,58.82,0,0,1,36-15.76s-24.14,7-34.57,18.5C377.28,206.94,392.34,179.89,392.34,179.89Z" transform="translate(-37.51 -20.9)"/>
    <path class="TopLeft" d="M412.57,20.9c-11.31,29.94,5.35,41.38,11.4,44.43a58.76,58.76,0,0,1-10.24-37.95s3.36,24.91,13.16,36.93C437.08,39.81,412.57,20.9,412.57,20.9Z" transform="translate(-37.51 -20.9)"/>
    <path class="TopLeft" d="M381.72,514.82c10.08-30.37-7-41.14-13.19-43.94a58.8,58.8,0,0,1,11.77,37.51s-4.37-24.76-14.64-36.36C356.46,496.92,381.72,514.82,381.72,514.82Z" transform="translate(-37.51 -20.9)"/>
    <path class="TopLeft" d="M930.88,140.61c-31.14-7.35-40.35,10.64-42.6,17a58.78,58.78,0,0,1,36.33-15s-24.28,6.54-34.93,17.8C915.28,167.36,930.88,140.61,930.88,140.61Z" transform="translate(-37.51 -20.9)"/>
    <path class="TopLeft" d="M725.25,88.53c-25.28,19.62-17.06,38.08-13.5,43.84a58.74,58.74,0,0,1,11.11-37.71s-10.16,23-8.09,38.36C736.27,117.46,725.25,88.53,725.25,88.53Z" transform="translate(-37.51 -20.9)"/>
    <path class="TopLeft" d="M605,205.51c-6-31.43-26.18-32.5-32.93-31.94a58.77,58.77,0,0,1,28.55,27S584.77,181.1,570.14,176C574.24,202.19,605,205.51,605,205.51Z" transform="translate(-37.51 -20.9)"/>
    
	<path class="BottomLeft" d="M664.56,535.22c.68,7.7.1,15.92-.6,23.6a139.31,139.31,0,0,1-4,22.56,160.85,160.85,0,0,1-18,41.84,204.92,204.92,0,0,1-15.8,23,73.92,73.92,0,0,0,5.08-9.75c5.86-13.75,8.25-30.07,3.65-44.51a.4.4,0,0,0-.77.17c1.05,14.93.25,29.66-5.9,43.53A77.54,77.54,0,0,1,615.75,655c-2.72,3.13-5.63,6.09-8.64,8.93s-6.19,5.23-8.63,8.45A238.14,238.14,0,0,1,576.43,688c-33.8,21-73.16,32.38-112.19,38.53-12.92,2-25.91,3.54-38.94,4.62l4.55-3.63c22.4-18,45.2-35.68,66.93-54.48,9.39-8.13,16.67-17.42,21.08-29.11a81.48,81.48,0,0,0,5.37-34.75c-1.59-20.85-14.31-40.92-35.53-46a34.21,34.21,0,0,0-14.42-.37c-.49.09-.46.84.06.79,11.78-1.21,23.13,3.35,31.71,11.34,9.45,8.79,14.24,21.18,15.05,33.92a79.69,79.69,0,0,1-8,38.93c-6.29,13.07-17.26,21.77-28.46,30.5-22.79,17.74-45.61,35.47-68.09,53.62-3.63.24-7.26.47-10.9.65-15.14.78-30.29.85-45.43,1.32-.36-4.85-1-9.69-1.8-14.49a2.22,2.22,0,0,0,.27-1.35,53,53,0,0,1,13.14-40.45,49,49,0,0,1,20.37-13.48,65.66,65.66,0,0,1,12.24-2.74c4-.57,8.3.4,12.21-.35a.48.48,0,0,0,.17-.9c-3.34-1.65-8.33-1.16-12-1.05a47.24,47.24,0,0,0-12.94,2.5A56.65,56.65,0,0,0,369,674.62a54,54,0,0,0-15.25,28.85,141.19,141.19,0,0,0-7.32-19.56c-8.15-17.67-19.88-33.79-35.19-45.91-14.05-11.13-32.82-19.14-50.9-19.13a62.15,62.15,0,0,0-13.11,1.5c-.32.07-.2.63.13.57,40.64-6.91,76.17,26.15,93,60a145,145,0,0,1,14.53,53c-3.57.13-7.13.28-10.69.48-34.44,2-67.63,9.49-98.61,24.55a92.52,92.52,0,0,0-36.54-20.66c-40.41-11.89-84.7,7.2-106.48,42.68S83,868.4,111.77,899.42a60.36,60.36,0,0,0,9.76,8.48,226.74,226.74,0,0,0-2.42,107.39c14.36,64,60.07,121.1,120.39,147.49a179.32,179.32,0,0,0,22,7.6c.86.25,1.32-1.18.48-1.49a221.91,221.91,0,0,1-91.06-64.3A105.34,105.34,0,0,1,154.42,1069c-5.13-20.67-2.43-42,6.5-61.2,8.34-18,21-33.34,35.14-47.09l.19-.19q3.27-3.16,6.61-6.23c3.54-3.24,7.24-6.44,11-9.63a120.56,120.56,0,0,1,16.63-10.36c15.61-8,32.33-11.75,49.61-14.09,15.28-2.06,31.42-3.85,43.87,7.15,11.5,10.17,13.28,25.32,6.15,38.56a47.11,47.11,0,0,1-17.56,17.91c-9,5.43-19,7.46-28.67,11.21a1.14,1.14,0,0,0,.48,2.2c9.37-1.09,19.17-4.78,27.51-9.11,7.32-3.8,14.18-8.88,19.22-15.47,9.15-12,11.16-27.89,3.09-41-8.8-14.28-24.71-19.58-40.79-18.73-17.7.94-36.29,3.88-53,10.24,7.68-6.17,15.21-12.36,22.16-18.68,17.62-16,35.2-32.25,51.32-49.77,14.92-16.21,25.27-33.55,34.16-53.82a139,139,0,0,0,11-43.13l2.34.43a116.75,116.75,0,0,1,19.51,5.75A104.1,104.1,0,0,0,363.37,792c-8.52,20.88-8.14,45.53,6.57,63.63,7,8.62,16.3,15.15,27.43,17a36.28,36.28,0,0,0,31.92-10.2c18.26-18,14.73-46.42,2.43-66.64-9.47-15.55-24.15-27.39-40.55-35.22a267.87,267.87,0,0,1,25.07-22.23c8.05-.59,16.1-1.3,24.12-2.19,15.51-.84,28.23-.33,28.23-.33a86.68,86.68,0,0,1,34.81,7.57c10.47,4.8,19.89,12.1,26.18,21.85,6.41,9.94,8.65,22.93,6.74,34.58,0,.13.19.21.24.07,1.49-4.19,2.59-8,2.53-12.49a50.85,50.85,0,0,0-2.35-14.26,60,60,0,0,0-14.38-24.36c-10.6-11-25.49-16.76-40.6-18.95a338.2,338.2,0,0,0,51.55-14.4,107.89,107.89,0,0,0,16.89-6.15c9.49-4.12,18.58-9,27.89-13.51,16.29-7.84,38.17-17.8,55.83-8.61a1,1,0,0,0,1.2-1.43c-2.63-3.2-7.31-3.76-11.2-4.19a64.9,64.9,0,0,0-13.22,0,90.42,90.42,0,0,0-21.25,4.71,180.71,180.71,0,0,0,17.28-14c10.93-10.05,20.52-21.76,29.82-33.3s16.51-25.43,21.89-39.26a146.45,146.45,0,0,0,9.94-43.17c.5-7.35-.16-14.31-.81-21.61A1.51,1.51,0,0,0,664.56,535.22ZM355.29,741.38q.12,4.29,0,8.57c-17.85-2.55-36.11-1.72-54.06.7q-11.49,1.54-22.9,3.82a256.41,256.41,0,0,1,58.41-11.83C342.9,742.11,349.09,741.71,355.29,741.38ZM118,898C103.42,884,95.81,863.14,94,843.35a98.35,98.35,0,0,1,11.15-55.67c18.26-33.61,58.67-54,96.4-45.3a88.07,88.07,0,0,1,38.22,19.56,240,240,0,0,0-78.68,65.37,226.19,226.19,0,0,0-38,75.06A54.12,54.12,0,0,1,118,898Zm36.29,104.23c-9.12,18.24-11.09,39.15-7.76,59.42a100.34,100.34,0,0,0,2.92,12.5,204,204,0,0,1-19.16-43.76c-11.58-38.24-11.81-79.65-1.8-118.36a57.22,57.22,0,0,0,40.72,4.71,57.87,57.87,0,0,0,27.39-16.66c6.55-7,12.39-16.57,12-26.52a16.83,16.83,0,0,0-4.94-11.43c-1.31-1.34-3.74.86-2.45,2.27,7.3,7.94,2.92,19.9-2.74,27.43a53.71,53.71,0,0,1-68.54,14.86,218.8,218.8,0,0,1,30.62-65A230.92,230.92,0,0,1,231,776.15a143,143,0,0,1,16.1-6.84l.07.08C261.7,786,267.5,807.67,269.1,829.27c.81,11,1.09,22.15-.81,33a74,74,0,0,1-10.86,27.2c-10.26,16-24.86,28.16-39.34,40.15-3.51,2.91-6.78,6.09-10.08,9.24a1.72,1.72,0,0,0-.59,1.26c-4.22,3.53-8.36,7.11-12.31,10.77C179,965.84,164.12,982.49,154.24,1002.26ZM343.72,800.5c-9.14,20-22.85,37.71-37.61,53.84-14.6,15.95-31,29.59-47.26,43.75,12-17.5,16.88-37.73,16.75-59-.15-23.71-4.77-48.75-19.2-68.14-1-1.29-2-2.54-3-3.77a263.47,263.47,0,0,1,31-7.23c23.15-4.23,47.06-6.51,70.42-2.94A130,130,0,0,1,343.72,800.5Zm74.65-10.69c14.74,17.32,24,45.15,8.16,64.83a30.8,30.8,0,0,1-30.79,11c-10.94-2.29-19.82-9.46-25.5-18.91-12.17-20.25-7.49-44.85,3.94-64.26a110,110,0,0,1,11.91-16.36C398.39,771.69,409.65,779.56,418.37,789.81ZM386,758.26q-3.94-1.65-8-3a126.67,126.67,0,0,0-18.49-4.65q.19-4.73.08-9.47c12.33-.59,24.66-1,37-1.59,3.43-.17,6.86-.37,10.29-.58A237.89,237.89,0,0,0,386,758.26Z" transform="translate(-37.51 -20.9)"/>
    <path class="BottomLeft" d="M247.74,682.38c-28.17,34.77-11.1,57.29-4.4,64-2.85-9.25-7-30.16,3.1-54.88,0,0-6.5,34.54,1.22,54.8C272,718.27,247.74,682.38,247.74,682.38Z" transform="translate(-37.51 -20.9)"/>
    <path class="BottomLeft" d="M244,642.3c31,19.72,47.82,3.65,52.67-2.44a67.55,67.55,0,0,1-45.11,2.64s28.83,2,44.64-6.17C271,619.14,244,642.3,244,642.3Z" transform="translate(-37.51 -20.9)"/>
    <path class="BottomLeft" d="M332.73,795.59c-30-33.2-54.88-19.81-62.54-14.24,9.58-1.39,30.88-2.23,53.74,11.54,0,0-33.13-11.76-54.33-7.26C293.54,814,332.73,795.59,332.73,795.59Z" transform="translate(-37.51 -20.9)"/>
    <path class="BottomLeft" d="M115.17,664.65c-7.06,55.84,26.12,68.59,37.72,71.32-9.18-8-27.45-27.61-33.08-60.72,0,0,16,41.24,37.65,57.77C164.85,687,115.17,664.65,115.17,664.65Z" transform="translate(-37.51 -20.9)"/>
    <path class="BottomLeft" d="M481.87,800.09C470.51,745,435,743.62,423.13,744.78c11.27,4.61,34.9,17.27,50.92,46.78,0,0-28.43-33.87-54.29-42.51C427.65,795,481.87,800.09,481.87,800.09Z" transform="translate(-37.51 -20.9)"/>
    <path class="BottomLeft" d="M638,452.29c48.22,29,37.7,63,32.67,73.78-.61-12.17-4.7-38.66-27.22-63.56,0,0,22.51,38.06,22.07,65.32C624.74,505.11,638,452.29,638,452.29Z" transform="translate(-37.51 -20.9)"/>
    <path class="BottomLeft" d="M326.14,597.78c32.94,28.61,20.37,53.13,15.08,60.7,1.17-9.37,1.58-30.15-12.28-52.18,0,0,12.1,32.08,8.12,52.84C309,636.34,326.14,597.78,326.14,597.78Z" transform="translate(-37.51 -20.9)"/>
    <path class="BottomLeft" d="M297.24,710.61c37.08-12.11,50.1,8.81,53.48,16.35a71.59,71.59,0,0,0-45.66-14.57s30.16,5.47,44.25,18.06C318.91,741.51,297.24,710.61,297.24,710.61Z" transform="translate(-37.51 -20.9)"/>
    <path class="BottomLeft" d="M48.4,739.85c16.46,40.93,44.05,37,53,34.47-9.34-2-29.33-8.45-45.8-29,0,0,26.65,22.16,47.81,25.22C90.93,736.18,48.4,739.85,48.4,739.85Z" transform="translate(-37.51 -20.9)"/>
    <path class="BottomLeft" d="M37.51,832.74c27.26,17.4,42.05,3.31,46.32-2a59.37,59.37,0,0,1-39.67,2.24s25.34,1.86,39.26-5.33C61.31,812.43,37.51,832.74,37.51,832.74Z" transform="translate(-37.51 -20.9)"/>
    <path class="BottomLeft" d="M277.53,718.65c-27.38,3.7-29.24,21.05-29.07,26.9a50.65,50.65,0,0,1,24.63-23.36S255.54,735,250.43,747.34C273.22,745,277.53,718.65,277.53,718.65Z" transform="translate(-37.51 -20.9)"/>
    <path class="BottomLeft" d="M247.37,583.6c-.41,27.63,16.48,32,22.28,32.75a50.78,50.78,0,0,1-19.44-27.83s10,19.25,21.51,26.14C272.82,591.78,247.37,583.6,247.37,583.6Z" transform="translate(-37.51 -20.9)"/>
    <path class="BottomLeft" d="M457.77,677.14c-14.08-23.77-30.78-18.72-36.1-16.29a50.72,50.72,0,0,1,31.1,13.58s-18.6-11.18-32-11.06C431.8,683.46,457.77,677.14,457.77,677.14Z" transform="translate(-37.51 -20.9)"/>
 </g>
</svg>
